<svg width="43" height="43" viewBox="0 0 43 43" fill="none" xmlns="http://www.w3.org/2000/svg">
<path opacity="0.1" fill-rule="evenodd" clip-rule="evenodd" d="M0.279297 21.1279C0.279297 9.4593 9.73859 0 21.4072 0C33.0759 0 42.5352 9.4593 42.5352 21.1279C42.5352 32.7966 33.0759 42.2559 21.4072 42.2559C9.73859 42.2559 0.279297 32.7966 0.279297 21.1279Z" fill="white"/>
<path d="M24.1754 17.1183V21.5669H29.677L28.8058 27.5594H24.1754V41.366C23.2471 41.4948 22.2972 41.562 21.3331 41.562C20.2202 41.562 19.1274 41.4733 18.0631 41.3016V27.5594H12.9893V21.5669H18.0631V16.1239C18.0631 12.747 20.7996 10.0083 24.1769 10.0083V10.0112C24.1869 10.0112 24.1955 10.0083 24.2055 10.0083H29.6784V15.1909H26.1023C25.0394 15.1909 24.1769 16.0538 24.1769 17.1169L24.1754 17.1183Z" fill="white"/>
</svg>
