<svg width="43" height="43" viewBox="0 0 43 43" fill="none" xmlns="http://www.w3.org/2000/svg">
<path opacity="0.1" fill-rule="evenodd" clip-rule="evenodd" d="M0 21.1279C0 9.4593 9.4593 0 21.1279 0C32.7966 0 42.2559 9.4593 42.2559 21.1279C42.2559 32.7966 32.7966 42.2559 21.1279 42.2559C9.4593 42.2559 0 32.7966 0 21.1279Z" fill="white"/>
<path fill-rule="evenodd" clip-rule="evenodd" d="M21.1292 9.85986C18.0689 9.85986 17.6848 9.87324 16.4828 9.92794C15.2832 9.98288 14.4644 10.1728 13.7479 10.4515C13.0068 10.7393 12.3781 11.1243 11.7518 11.7508C11.125 12.3772 10.74 13.0058 10.4512 13.7467C10.1719 14.4635 9.9817 15.2825 9.92771 16.4817C9.87395 17.6836 9.85986 18.0679 9.85986 21.1282C9.85986 24.1885 9.87348 24.5714 9.92794 25.7734C9.98311 26.973 10.173 27.7918 10.4515 28.5083C10.7395 29.2494 11.1245 29.8781 11.7511 30.5044C12.3772 31.1312 13.0058 31.5172 13.7465 31.805C14.4635 32.0836 15.2825 32.2735 16.4819 32.3285C17.6839 32.3832 18.0677 32.3966 21.1277 32.3966C24.1883 32.3966 24.5712 32.3832 25.7731 32.3285C26.9727 32.2735 27.7925 32.0836 28.5095 31.805C29.2503 31.5172 29.8781 31.1312 30.5042 30.5044C31.131 29.8781 31.516 29.2494 31.8047 28.5085C32.0818 27.7918 32.2719 26.9727 32.3282 25.7736C32.3822 24.5716 32.3963 24.1885 32.3963 21.1282C32.3963 18.0679 32.3822 17.6839 32.3282 16.4819C32.2719 15.2823 32.0818 14.4635 31.8047 13.747C31.516 13.0058 31.131 12.3772 30.5042 11.7508C29.8774 11.124 29.2506 10.739 28.5087 10.4515C27.7904 10.1728 26.9711 9.98288 25.7715 9.92794C24.5695 9.87324 24.1869 9.85986 21.1256 9.85986H21.1292ZM20.1182 11.8905C20.4183 11.89 20.753 11.8905 21.1291 11.8905C24.1378 11.8905 24.4943 11.9013 25.6825 11.9553C26.7811 12.0055 27.3774 12.1891 27.7746 12.3433C28.3005 12.5476 28.6754 12.7917 29.0695 13.1861C29.4639 13.5805 29.7081 13.9561 29.9128 14.482C30.067 14.8787 30.2508 15.475 30.3008 16.5737C30.3548 17.7615 30.3666 18.1184 30.3666 21.1256C30.3666 24.1328 30.3548 24.4897 30.3008 25.6775C30.2506 26.7762 30.067 27.3725 29.9128 27.7692C29.7085 28.2951 29.4639 28.6695 29.0695 29.0637C28.6751 29.4581 28.3007 29.7022 27.7746 29.9065C27.3779 30.0614 26.7811 30.2445 25.6825 30.2947C24.4946 30.3487 24.1378 30.3605 21.1291 30.3605C18.1202 30.3605 17.7636 30.3487 16.5758 30.2947C15.4771 30.244 14.8808 30.0605 14.4834 29.9062C13.9575 29.702 13.5819 29.4578 13.1875 29.0634C12.7931 28.6691 12.549 28.2944 12.3443 27.7683C12.19 27.3715 12.0062 26.7753 11.9562 25.6766C11.9022 24.4887 11.8914 24.1319 11.8914 21.1228C11.8914 18.1137 11.9022 17.7587 11.9562 16.5708C12.0064 15.4722 12.19 14.8759 12.3443 14.4787C12.5485 13.9528 12.7931 13.5772 13.1875 13.1828C13.5819 12.7884 13.9575 12.5443 14.4834 12.3396C14.8806 12.1846 15.4771 12.0015 16.5758 11.951C17.6153 11.9041 18.0181 11.89 20.1182 11.8877V11.8905ZM27.1441 13.7615C26.3975 13.7615 25.7919 14.3665 25.7919 15.1132C25.7919 15.8598 26.3975 16.4654 27.1441 16.4654C27.8906 16.4654 28.4963 15.8598 28.4963 15.1132C28.4963 14.3667 27.8906 13.7615 27.1441 13.7615ZM21.1292 15.3414C17.9334 15.3414 15.3424 17.9324 15.3424 21.1282C15.3424 24.3239 17.9334 26.9138 21.1292 26.9138C24.3249 26.9138 26.915 24.3239 26.915 21.1282C26.915 17.9324 24.3249 15.3414 21.1292 15.3414ZM21.1291 17.3721C23.2034 17.3721 24.8852 19.0536 24.8852 21.1282C24.8852 23.2025 23.2034 24.8843 21.1291 24.8843C19.0546 24.8843 17.373 23.2025 17.373 21.1282C17.373 19.0536 19.0546 17.3721 21.1291 17.3721Z" fill="white"/>
</svg>
