<svg width="43" height="43" viewBox="0 0 43 43" fill="none" xmlns="http://www.w3.org/2000/svg">
<path opacity="0.1" fill-rule="evenodd" clip-rule="evenodd" d="M0.426514 21.1279C0.426514 9.4593 9.88581 0 21.5544 0C33.2231 0 42.6824 9.4593 42.6824 21.1279C42.6824 32.7966 33.2231 42.2559 21.5544 42.2559C9.88581 42.2559 0.426514 32.7966 0.426514 21.1279Z" fill="white"/>
<path fill-rule="evenodd" clip-rule="evenodd" d="M20.9217 17.1735L20.966 17.9046L20.2271 17.8151C17.5374 17.4719 15.1876 16.3082 13.1925 14.3537L12.2171 13.3839L11.9659 14.1C11.4338 15.6965 11.7737 17.3824 12.8821 18.5163C13.4733 19.143 13.3403 19.2325 12.3205 18.8595C11.9659 18.7401 11.6555 18.6506 11.626 18.6954C11.5225 18.7998 11.8772 20.1575 12.158 20.6946C12.5422 21.4406 13.3255 22.1717 14.1826 22.6044L14.9068 22.9475L14.0496 22.9624C13.222 22.9624 13.1925 22.9774 13.2812 23.2907C13.5767 24.2605 14.7442 25.2899 16.0447 25.7375L16.961 26.0509L16.163 26.5283C14.9807 27.2146 13.5915 27.6025 12.2023 27.6324C11.5373 27.6473 10.9905 27.707 10.9905 27.7517C10.9905 27.9009 12.7935 28.7364 13.8427 29.0647C16.9906 30.0345 20.7295 29.6167 23.5375 27.9606C25.5326 26.7819 27.5277 24.4395 28.4587 22.1717C28.9612 20.9632 29.4637 18.755 29.4637 17.6957C29.4637 17.0094 29.508 16.9199 30.3356 16.0993C30.8233 15.6219 31.2814 15.0997 31.3701 14.9505C31.5179 14.667 31.5031 14.667 30.7494 14.9206C29.4932 15.3682 29.3159 15.3085 29.9366 14.6372C30.3947 14.1597 30.9415 13.2944 30.9415 13.0407C30.9415 12.996 30.7198 13.0706 30.4686 13.2048C30.2026 13.354 29.6115 13.5778 29.1681 13.7121L28.3701 13.9658L27.6459 13.4734C27.2469 13.2048 26.6853 12.9064 26.3897 12.8169C25.636 12.6081 24.4833 12.6379 23.8035 12.8766C21.9562 13.548 20.7887 15.2787 20.9217 17.1735Z" fill="white"/>
</svg>
