<svg width="44" height="43" viewBox="0 0 44 43" fill="none" xmlns="http://www.w3.org/2000/svg">
<path opacity="0.1" fill-rule="evenodd" clip-rule="evenodd" d="M0.852783 21.1279C0.852783 9.4593 10.3121 0 21.9807 0C33.6493 0 43.1086 9.4593 43.1086 21.1279C43.1086 32.7966 33.6493 42.2559 21.9807 42.2559C10.3121 42.2559 0.852783 32.7966 0.852783 21.1279Z" fill="white"/>
<path fill-rule="evenodd" clip-rule="evenodd" d="M30.7856 13.8649C31.7553 14.131 32.519 14.9151 32.7781 15.9107C33.2491 17.7152 33.2491 21.4804 33.2491 21.4804C33.2491 21.4804 33.2491 25.2454 32.7781 27.05C32.519 28.0457 31.7553 28.8297 30.7856 29.096C29.0283 29.5794 21.9809 29.5794 21.9809 29.5794C21.9809 29.5794 14.9335 29.5794 13.176 29.096C12.2063 28.8297 11.4426 28.0457 11.1835 27.05C10.7126 25.2454 10.7126 21.4804 10.7126 21.4804C10.7126 21.4804 10.7126 17.7152 11.1835 15.9107C11.4426 14.9151 12.2063 14.131 13.176 13.8649C14.9335 13.3813 21.9809 13.3813 21.9809 13.3813C21.9809 13.3813 29.0283 13.3813 30.7856 13.8649ZM19.8681 18.3111V25.3538L25.5022 21.8326L19.8681 18.3111Z" fill="white"/>
</svg>
