<svg width="45" height="46" viewBox="0 0 45 46" fill="none" xmlns="http://www.w3.org/2000/svg">
<g clip-path="url(#clip0_486_553)">
<path d="M43.0224 19.1428L35.8802 11.9268C35.7086 11.7538 35.5045 11.6165 35.2796 11.5228C35.0547 11.4291 34.8135 11.3809 34.5698 11.3809C34.3262 11.3809 34.085 11.4291 33.8601 11.5228C33.6352 11.6165 33.4311 11.7538 33.2595 11.9268C32.9158 12.2726 32.7228 12.7403 32.7228 13.2279C32.7228 13.7154 32.9158 14.1832 33.2595 14.529L39.8296 21.1545H2.19904C1.70957 21.1545 1.24015 21.3489 0.894048 21.695C0.547942 22.0411 0.353501 22.5105 0.353501 23H0.353501C0.353501 23.4895 0.547942 23.9589 0.894048 24.305C1.24015 24.6511 1.70957 24.8456 2.19904 24.8456H39.9403L33.2595 31.508C33.0865 31.6795 32.9492 31.8836 32.8555 32.1085C32.7618 32.3334 32.7136 32.5747 32.7136 32.8183C32.7136 33.0619 32.7618 33.3031 32.8555 33.528C32.9492 33.7529 33.0865 33.9571 33.2595 34.1286C33.4311 34.3016 33.6352 34.4389 33.8601 34.5326C34.085 34.6263 34.3262 34.6745 34.5698 34.6745C34.8135 34.6745 35.0547 34.6263 35.2796 34.5326C35.5045 34.4389 35.7086 34.3016 35.8802 34.1286L43.0224 26.9679C44.0592 25.9298 44.6416 24.5226 44.6416 23.0554C44.6416 21.5882 44.0592 20.1809 43.0224 19.1428Z" fill="white"/>
</g>
<defs>
<clipPath id="clip0_486_553">
<rect width="44.293" height="44.293" fill="white" transform="translate(0.353516 0.853516)"/>
</clipPath>
</defs>
</svg>
