<svg width="25" height="24" viewBox="0 0 25 24" fill="none" xmlns="http://www.w3.org/2000/svg">
<g clip-path="url(#clip0_324_1580)">
<path d="M12.5001 6C11.709 6 10.9356 6.2346 10.2778 6.67412C9.62005 7.11365 9.10736 7.73836 8.80461 8.46927C8.50186 9.20017 8.42264 10.0044 8.57698 10.7804C8.73132 11.5563 9.11229 12.269 9.6717 12.8284C10.2311 13.3878 10.9438 13.7688 11.7198 13.9231C12.4957 14.0775 13.3 13.9983 14.0309 13.6955C14.7618 13.3928 15.3865 12.8801 15.826 12.2223C16.2655 11.5645 16.5001 10.7911 16.5001 10C16.5001 8.93913 16.0787 7.92172 15.3286 7.17157C14.5784 6.42143 13.561 6 12.5001 6ZM12.5001 12C12.1046 12 11.7179 11.8827 11.389 11.6629C11.0601 11.4432 10.8037 11.1308 10.6524 10.7654C10.501 10.3999 10.4614 9.99778 10.5386 9.60982C10.6157 9.22186 10.8062 8.86549 11.0859 8.58579C11.3656 8.30608 11.722 8.1156 12.1099 8.03843C12.4979 7.96126 12.9 8.00087 13.2655 8.15224C13.6309 8.30362 13.9433 8.55996 14.1631 8.88886C14.3828 9.21776 14.5001 9.60444 14.5001 10C14.5001 10.5304 14.2894 11.0391 13.9143 11.4142C13.5393 11.7893 13.0306 12 12.5001 12Z" fill="white"/>
<path d="M12.4999 24.0001C11.6579 24.0044 10.8271 23.8069 10.077 23.4241C9.32697 23.0413 8.67954 22.4844 8.18895 21.8C4.37795 16.543 2.44495 12.591 2.44495 10.053C2.44495 7.3863 3.50431 4.82877 5.38999 2.94309C7.27567 1.05741 9.83319 -0.00195312 12.4999 -0.00195312C15.1667 -0.00195312 17.7242 1.05741 19.6099 2.94309C21.4956 4.82877 22.5549 7.3863 22.5549 10.053C22.5549 12.591 20.6219 16.543 16.8109 21.8C16.3204 22.4844 15.6729 23.0413 14.9229 23.4241C14.1728 23.8069 13.342 24.0044 12.4999 24.0001ZM12.4999 2.18105C10.4124 2.18343 8.41096 3.01377 6.93482 4.48992C5.45867 5.96606 4.62833 7.96746 4.62595 10.055C4.62595 12.065 6.51895 15.782 9.95495 20.521C10.2466 20.9228 10.6293 21.2498 11.0717 21.4753C11.514 21.7008 12.0034 21.8183 12.4999 21.8183C12.9964 21.8183 13.4859 21.7008 13.9282 21.4753C14.3706 21.2498 14.7533 20.9228 15.0449 20.521C18.4809 15.782 20.3739 12.065 20.3739 10.055C20.3716 7.96746 19.5412 5.96606 18.0651 4.48992C16.5889 3.01377 14.5875 2.18343 12.4999 2.18105Z" fill="white"/>
</g>
<defs>
<clipPath id="clip0_324_1580">
<rect width="24" height="24" fill="white" transform="translate(0.5)"/>
</clipPath>
</defs>
</svg>
