<svg width="31" height="30" viewBox="0 0 31 30" fill="none" xmlns="http://www.w3.org/2000/svg">
<rect x="0.5" width="30" height="30" rx="15" fill="#89CFF0"/>
<path d="M15.0598 14.5583V11.8785H12.2848C12.1348 12.6691 12.042 13.5631 12.0218 14.5583H15.0598ZM15.0598 10.995V7.5C14.0294 7.75791 13.0445 8.9394 12.487 10.995H15.0598ZM11.1421 15.4417H8C8.0535 16.3674 8.27464 17.2626 8.64913 18.092H11.3909C11.2467 17.276 11.1628 16.3884 11.1421 15.4417ZM8 14.5583H11.1412C11.1598 13.6003 11.2432 12.7026 11.3889 11.8785H8.66263C8.28004 12.7162 8.05412 13.6216 8 14.5583ZM15.9402 7.50368V10.995H18.5053C18.2943 10.2253 18.0417 9.64618 17.8085 9.22331C17.2872 8.27793 16.6361 7.68326 15.9402 7.50368ZM15.0598 15.4417H12.0228C12.0459 16.4721 12.1441 17.3495 12.2848 18.092H15.0598L15.0598 15.4417ZM18.5789 8.7956C18.9265 9.426 19.2061 10.1649 19.4147 10.995H21.8602C21.5627 10.5232 21.2105 10.0806 20.8066 9.6754C19.9883 8.85429 19.0172 8.24586 17.9596 7.87661C18.1825 8.14548 18.3895 8.45215 18.5789 8.7956ZM18.9773 14.5583C18.9539 13.5141 18.8532 12.6273 18.7096 11.8785H15.9402V14.5583H18.9773ZM19.4312 18.9755C19.2222 19.8235 18.9392 20.5769 18.5852 21.2176C18.4002 21.5527 18.1981 21.8523 17.9808 22.116C19.0302 21.746 19.9938 21.1402 20.8066 20.3246C21.2188 19.911 21.5769 19.4583 21.8783 18.9755H19.4312ZM11.5762 10.995C11.7845 10.1591 12.065 9.41569 12.4148 8.78244C12.5999 8.44738 12.802 8.14762 13.0193 7.88392C11.9699 8.25387 11.0062 8.85974 10.1934 9.67537C9.78953 10.0806 9.43735 10.5232 9.13978 10.995L11.5762 10.995ZM19.6037 11.8785C19.7512 12.7026 19.837 13.6 19.858 14.5583H23C22.9459 13.6216 22.72 12.7162 22.3374 11.8785H19.6037ZM12.4211 21.2045C12.0694 20.5666 11.7874 19.8177 11.578 18.9755H9.12168C9.42309 19.4583 9.78123 19.911 10.1934 20.3246C11.0117 21.1456 11.9828 21.7541 13.0404 22.1234C12.8175 21.8545 12.6105 21.5479 12.4211 21.2045ZM15.9402 15.4417V18.092H18.7209C18.8676 17.3087 18.9583 16.4245 18.9783 15.4417H15.9402ZM23 15.4417H19.8589C19.8405 16.3883 19.7589 17.276 19.6164 18.092H22.3509C22.7253 17.2625 22.9465 16.3674 23 15.4417ZM15.9402 18.9755V22.5C16.9756 22.2409 17.9651 21.0495 18.5212 18.9755H15.9402ZM15.0598 22.4963V18.9755H12.4867C12.6993 19.76 12.9554 20.3485 13.1915 20.7768C13.7128 21.7221 14.3639 22.3167 15.0598 22.4963Z" fill="white"/>
</svg>
